<svg width="25" height="32" viewBox="0 0 25 32" fill="none" xmlns="http://www.w3.org/2000/svg">
<g clip-path="url(#clip0_20_381)">
<path fill-rule="evenodd" clip-rule="evenodd" d="M21.1154 13.7284L13.6154 6.65219C13.6117 6.64899 13.6083 6.64554 13.6051 6.64188C13.0329 6.1215 12.1589 6.1215 11.5867 6.64188L11.5763 6.65219L4.08479 13.7284C3.77583 14.0125 3.60003 14.4131 3.6001 14.8328V23.5C3.6001 24.3284 4.27167 25 5.1001 25H9.6001C10.4285 25 11.1001 24.3284 11.1001 23.5V19H14.1001V23.5C14.1001 24.3284 14.7717 25 15.6001 25H20.1001C20.9285 25 21.6001 24.3284 21.6001 23.5V14.8328C21.6002 14.4131 21.4244 14.0125 21.1154 13.7284ZM20.1001 23.5H15.6001V19C15.6001 18.1716 14.9285 17.5 14.1001 17.5H11.1001C10.2717 17.5 9.6001 18.1716 9.6001 19V23.5H5.1001V14.8328L5.11041 14.8234L12.6001 7.75L20.0907 14.8216L20.101 14.8309L20.1001 23.5Z" fill="#4A80AD"/>
</g>
<defs>
<clipPath id="clip0_20_381">
<rect width="24" height="24" fill="white" transform="translate(0.600098 4)"/>
</clipPath>
</defs>
</svg>
