<svg width="16" height="16" viewBox="0 0 16 16" fill="none" xmlns="http://www.w3.org/2000/svg">
<path d="M5.33333 9.3335C5.14444 9.3335 4.98622 9.2695 4.85867 9.1415C4.73111 9.0135 4.66711 8.85527 4.66667 8.66683C4.66622 8.47838 4.73022 8.32016 4.85867 8.19216C4.98711 8.06416 5.14533 8.00016 5.33333 8.00016C5.52133 8.00016 5.67978 8.06416 5.80867 8.19216C5.93756 8.32016 6.00133 8.47838 6 8.66683C5.99867 8.85527 5.93467 9.01372 5.808 9.14216C5.68133 9.27061 5.52311 9.33438 5.33333 9.3335ZM8 9.3335C7.81111 9.3335 7.65289 9.2695 7.52533 9.1415C7.39778 9.0135 7.33378 8.85527 7.33333 8.66683C7.33289 8.47838 7.39689 8.32016 7.52533 8.19216C7.65378 8.06416 7.812 8.00016 8 8.00016C8.188 8.00016 8.34644 8.06416 8.47533 8.19216C8.60422 8.32016 8.668 8.47838 8.66667 8.66683C8.66533 8.85527 8.60133 9.01372 8.47467 9.14216C8.348 9.27061 8.18978 9.33438 8 9.3335ZM10.6667 9.3335C10.4778 9.3335 10.3196 9.2695 10.192 9.1415C10.0644 9.0135 10.0004 8.85527 10 8.66683C9.99956 8.47838 10.0636 8.32016 10.192 8.19216C10.3204 8.06416 10.4787 8.00016 10.6667 8.00016C10.8547 8.00016 11.0131 8.06416 11.142 8.19216C11.2709 8.32016 11.3347 8.47838 11.3333 8.66683C11.332 8.85527 11.268 9.01372 11.1413 9.14216C11.0147 9.27061 10.8564 9.33438 10.6667 9.3335ZM3.33333 14.6668C2.96667 14.6668 2.65289 14.5364 2.392 14.2755C2.13111 14.0146 2.00044 13.7006 2 13.3335V4.00016C2 3.6335 2.13067 3.31972 2.392 3.05883C2.65333 2.79794 2.96711 2.66727 3.33333 2.66683H4V1.3335H5.33333V2.66683H10.6667V1.3335H12V2.66683H12.6667C13.0333 2.66683 13.3473 2.7975 13.6087 3.05883C13.87 3.32016 14.0004 3.63394 14 4.00016V13.3335C14 13.7002 13.8696 14.0142 13.6087 14.2755C13.3478 14.5368 13.0338 14.6673 12.6667 14.6668H3.33333ZM3.33333 13.3335H12.6667V6.66683H3.33333V13.3335Z" fill="#64748B"/>
</svg>
