<svg width="25" height="32" viewBox="0 0 25 32" fill="none" xmlns="http://www.w3.org/2000/svg">
<g clip-path="url(#clip0_573_3689)">
<path fill-rule="evenodd" clip-rule="evenodd" d="M19.875 7H17.625V6.25C17.625 5.83579 17.2892 5.5 16.875 5.5C16.4608 5.5 16.125 5.83579 16.125 6.25V7H8.625V6.25C8.625 5.83579 8.28921 5.5 7.875 5.5C7.46079 5.5 7.125 5.83579 7.125 6.25V7H4.875C4.04657 7 3.375 7.67157 3.375 8.5V23.5C3.375 24.3284 4.04657 25 4.875 25H19.875C20.7034 25 21.375 24.3284 21.375 23.5V8.5C21.375 7.67157 20.7034 7 19.875 7ZM7.125 8.5V9.25C7.125 9.66421 7.46079 10 7.875 10C8.28921 10 8.625 9.66421 8.625 9.25V8.5H16.125V9.25C16.125 9.66421 16.4608 10 16.875 10C17.2892 10 17.625 9.66421 17.625 9.25V8.5H19.875V11.5H4.875V8.5H7.125ZM19.875 23.5H4.875V13H19.875V23.5ZM10.875 15.25V21.25C10.875 21.6642 10.5392 22 10.125 22C9.71079 22 9.375 21.6642 9.375 21.25V16.4631L8.96062 16.6713C8.5899 16.8566 8.13911 16.7063 7.95375 16.3356C7.76839 15.9649 7.91865 15.5141 8.28937 15.3287L9.78938 14.5787C10.022 14.4624 10.2982 14.4748 10.5194 14.6116C10.7406 14.7483 10.8752 14.9899 10.875 15.25ZM16.4212 18.1047L14.625 20.5H16.125C16.5392 20.5 16.875 20.8358 16.875 21.25C16.875 21.6642 16.5392 22 16.125 22H13.125C12.8409 22 12.5812 21.8395 12.4542 21.5854C12.3271 21.3313 12.3546 21.0273 12.525 20.8L15.2231 17.2028C15.3903 16.9802 15.4205 16.6833 15.3014 16.4316C15.1823 16.1799 14.9336 16.0149 14.6554 16.003C14.3773 15.9912 14.1154 16.1344 13.9753 16.375C13.8452 16.6146 13.5953 16.7647 13.3226 16.7671C13.05 16.7694 12.7976 16.6236 12.6634 16.3863C12.5292 16.1489 12.5343 15.8574 12.6769 15.625C13.1862 14.7435 14.224 14.3139 15.2074 14.5774C16.1908 14.8409 16.8747 15.7319 16.875 16.75C16.8766 17.2391 16.7171 17.7152 16.4212 18.1047Z" fill="#4A739C"/>
</g>
<defs>
<clipPath id="clip0_573_3689">
<rect width="24" height="24" fill="white" transform="translate(0.375 4)"/>
</clipPath>
</defs>
</svg>
