<svg width="20" height="20" viewBox="0 0 20 20" fill="none" xmlns="http://www.w3.org/2000/svg">
<path d="M1.66666 18.3327V3.33268C1.66666 2.87435 1.83 2.48213 2.15666 2.15602C2.48333 1.8299 2.87555 1.66657 3.33333 1.66602H16.6667C17.125 1.66602 17.5175 1.82935 17.8442 2.15602C18.1708 2.48268 18.3339 2.8749 18.3333 3.33268V13.3327C18.3333 13.791 18.1703 14.1835 17.8442 14.5102C17.5181 14.8368 17.1256 14.9999 16.6667 14.9993H5L1.66666 18.3327ZM5 11.666H11.6667V9.99935H5V11.666ZM5 9.16602H15V7.49935H5V9.16602ZM5 6.66602H15V4.99935H5V6.66602Z" fill="#D4B036"/>
</svg>
