<svg width="20" height="20" viewBox="0 0 20 20" fill="none" xmlns="http://www.w3.org/2000/svg">
<path d="M11.6668 11.6665H10.8335V10.8332C10.8335 10.6122 10.7457 10.4002 10.5894 10.2439C10.4331 10.0876 10.2212 9.99984 10.0002 9.99984C9.77915 9.99984 9.56719 10.0876 9.41091 10.2439C9.25463 10.4002 9.16683 10.6122 9.16683 10.8332V11.6665H8.3335C8.11248 11.6665 7.90052 11.7543 7.74424 11.9106C7.58796 12.0669 7.50016 12.2788 7.50016 12.4998C7.50016 12.7209 7.58796 12.9328 7.74424 13.0891C7.90052 13.2454 8.11248 13.3332 8.3335 13.3332H9.16683V14.1665C9.16683 14.3875 9.25463 14.5995 9.41091 14.7558C9.56719 14.912 9.77915 14.9998 10.0002 14.9998C10.2212 14.9998 10.4331 14.912 10.5894 14.7558C10.7457 14.5995 10.8335 14.3875 10.8335 14.1665V13.3332H11.6668C11.8878 13.3332 12.0998 13.2454 12.2561 13.0891C12.4124 12.9328 12.5002 12.7209 12.5002 12.4998C12.5002 12.2788 12.4124 12.0669 12.2561 11.9106C12.0998 11.7543 11.8878 11.6665 11.6668 11.6665ZM16.6668 7.44984C16.6582 7.37327 16.6414 7.29785 16.6168 7.22484V7.14984C16.5777 7.06363 16.5241 6.98472 16.4585 6.9165L11.4585 1.9165C11.3903 1.85085 11.3114 1.79731 11.2252 1.75817H11.1502C11.0653 1.71002 10.9719 1.67889 10.8752 1.6665H5.8335C5.17045 1.6665 4.53457 1.9299 4.06573 2.39874C3.59689 2.86758 3.3335 3.50346 3.3335 4.1665V15.8332C3.3335 16.4962 3.59689 17.1321 4.06573 17.6009C4.53457 18.0698 5.17045 18.3332 5.8335 18.3332H14.1668C14.8299 18.3332 15.4658 18.0698 15.9346 17.6009C16.4034 17.1321 16.6668 16.4962 16.6668 15.8332V7.44984ZM11.6668 4.50817L13.8252 6.6665H12.5002C12.2791 6.6665 12.0672 6.57871 11.9109 6.42243C11.7546 6.26615 11.6668 6.05418 11.6668 5.83317V4.50817ZM15.0002 15.8332C15.0002 16.0542 14.9124 16.2661 14.7561 16.4224C14.5998 16.5787 14.3878 16.6665 14.1668 16.6665H5.8335C5.61248 16.6665 5.40052 16.5787 5.24424 16.4224C5.08796 16.2661 5.00016 16.0542 5.00016 15.8332V4.1665C5.00016 3.94549 5.08796 3.73353 5.24424 3.57725C5.40052 3.42097 5.61248 3.33317 5.8335 3.33317H10.0002V5.83317C10.0002 6.49621 10.2636 7.1321 10.7324 7.60094C11.2012 8.06978 11.8371 8.33317 12.5002 8.33317H15.0002V15.8332Z" fill="#888888"/>
</svg>
