<svg width="14" height="16" viewBox="0 0 14 16" fill="none" xmlns="http://www.w3.org/2000/svg">
<path d="M8.66667 4.66667H12.3333L8.66667 1V4.66667ZM4 0H9.33333L13.3333 4V12C13.3333 12.3536 13.1929 12.6928 12.9428 12.9428C12.6928 13.1929 12.3536 13.3333 12 13.3333H4C3.64638 13.3333 3.30724 13.1929 3.05719 12.9428C2.80714 12.6928 2.66667 12.3536 2.66667 12V1.33333C2.66667 0.979711 2.80714 0.640573 3.05719 0.390524C3.30724 0.140476 3.64638 0 4 0ZM1.33333 2.66667V14.6667H12V16H1.33333C0.979711 16 0.640573 15.8595 0.390524 15.6095C0.140476 15.3594 0 15.0203 0 14.6667V2.66667H1.33333Z" fill="#2563EB"/>
</svg>
