<svg width="16" height="16" viewBox="0 0 16 16" fill="none" xmlns="http://www.w3.org/2000/svg">
<path d="M11.9998 14.6668C12.3535 14.6668 12.6926 14.5264 12.9426 14.2763C13.1927 14.0263 13.3332 13.6871 13.3332 13.3335V5.3335L9.33317 1.3335H3.99984C3.64622 1.3335 3.30708 1.47397 3.05703 1.72402C2.80698 1.97407 2.6665 2.31321 2.6665 2.66683V13.3335C2.6665 13.6871 2.80698 14.0263 3.05703 14.2763C3.30708 14.5264 3.64622 14.6668 3.99984 14.6668H11.9998ZM8.6665 2.66683L11.9998 6.00016H8.6665V2.66683ZM4.6665 5.3335H6.6665V6.66683H4.6665V5.3335ZM4.6665 8.00016H11.3332V9.3335H4.6665V8.00016ZM4.6665 10.6668H11.3332V12.0002H4.6665V10.6668Z" fill="#64748B"/>
</svg>
