<svg width="25" height="24" viewBox="0 0 25 24" fill="none" xmlns="http://www.w3.org/2000/svg">
<g clip-path="url(#clip0_55_491)">
<path fill-rule="evenodd" clip-rule="evenodd" d="M20.3003 3H18.0503V2.25C18.0503 1.83579 17.7145 1.5 17.3003 1.5C16.8861 1.5 16.5503 1.83579 16.5503 2.25V3H9.05029V2.25C9.05029 1.83579 8.71451 1.5 8.30029 1.5C7.88608 1.5 7.55029 1.83579 7.55029 2.25V3H5.30029C4.47187 3 3.80029 3.67157 3.80029 4.5V19.5C3.80029 20.3284 4.47187 21 5.30029 21H20.3003C21.1287 21 21.8003 20.3284 21.8003 19.5V4.5C21.8003 3.67157 21.1287 3 20.3003 3ZM7.55029 4.5V5.25C7.55029 5.66421 7.88608 6 8.30029 6C8.71451 6 9.05029 5.66421 9.05029 5.25V4.5H16.5503V5.25C16.5503 5.66421 16.8861 6 17.3003 6C17.7145 6 18.0503 5.66421 18.0503 5.25V4.5H20.3003V7.5H5.30029V4.5H7.55029ZM20.3003 19.5H5.30029V9H20.3003V19.5ZM11.3003 11.25V17.25C11.3003 17.6642 10.9645 18 10.5503 18C10.1361 18 9.80029 17.6642 9.80029 17.25V12.4631L9.38592 12.6713C9.0152 12.8566 8.5644 12.7063 8.37904 12.3356C8.19368 11.9649 8.34395 11.5141 8.71467 11.3287L10.2147 10.5787C10.4472 10.4624 10.7235 10.4748 10.9447 10.6116C11.1659 10.7483 11.3005 10.9899 11.3003 11.25ZM16.8465 14.1047L15.0503 16.5H16.5503C16.9645 16.5 17.3003 16.8358 17.3003 17.25C17.3003 17.6642 16.9645 18 16.5503 18H13.5503C13.2662 18 13.0065 17.8395 12.8795 17.5854C12.7524 17.3313 12.7798 17.0273 12.9503 16.8L15.6484 13.2028C15.8156 12.9802 15.8458 12.6833 15.7267 12.4316C15.6076 12.1799 15.3589 12.0149 15.0807 12.003C14.8026 11.9912 14.5407 12.1344 14.4006 12.375C14.2705 12.6146 14.0206 12.7647 13.7479 12.7671C13.4753 12.7694 13.2229 12.6236 13.0886 12.3863C12.9544 12.1489 12.9596 11.8574 13.1022 11.625C13.6115 10.7435 14.6493 10.3139 15.6327 10.5774C16.6161 10.8409 17.3 11.7319 17.3003 12.75C17.3019 13.2391 17.1424 13.7152 16.8465 14.1047Z" fill="#61788A"/>
</g>
<defs>
<clipPath id="clip0_55_491">
<rect width="24" height="24" fill="white" transform="translate(0.800293)"/>
</clipPath>
</defs>
</svg>
