<svg width="25" height="32" viewBox="0 0 25 32" fill="none" xmlns="http://www.w3.org/2000/svg">
<g clip-path="url(#clip0_55_511)">
<path fill-rule="evenodd" clip-rule="evenodd" d="M22.0487 23.875C20.6208 21.4066 18.4205 19.6366 15.8527 18.7975C18.4635 17.2433 19.7141 14.1364 18.9081 11.2069C18.1021 8.27741 15.4382 6.24745 12.3999 6.24745C9.36157 6.24745 6.69769 8.27741 5.89172 11.2069C5.08575 14.1364 6.33635 17.2433 8.94709 18.7975C6.37928 19.6356 4.17896 21.4056 2.75115 23.875C2.60861 24.1074 2.60343 24.3989 2.73763 24.6363C2.87184 24.8736 3.12428 25.0194 3.39693 25.0171C3.66958 25.0147 3.91948 24.8646 4.04959 24.625C5.81584 21.5725 8.93771 19.75 12.3999 19.75C15.8621 19.75 18.984 21.5725 20.7502 24.625C20.8803 24.8646 21.1302 25.0147 21.4029 25.0171C21.6755 25.0194 21.928 24.8736 22.0622 24.6363C22.1964 24.3989 22.1912 24.1074 22.0487 23.875ZM7.1499 13C7.1499 10.1005 9.50041 7.75 12.3999 7.75C15.2994 7.75 17.6499 10.1005 17.6499 13C17.6499 15.8995 15.2994 18.25 12.3999 18.25C9.50169 18.2469 7.153 15.8982 7.1499 13Z" fill="#61788A"/>
</g>
<defs>
<clipPath id="clip0_55_511">
<rect width="24" height="24" fill="white" transform="translate(0.399902 4)"/>
</clipPath>
</defs>
</svg>
