<svg width="25" height="24" viewBox="0 0 25 24" fill="none" xmlns="http://www.w3.org/2000/svg">
<g clip-path="url(#clip0_55_505)">
<path fill-rule="evenodd" clip-rule="evenodd" d="M19.7002 3H4.7002C3.87177 3 3.2002 3.67157 3.2002 4.5V19.5C3.2002 20.3284 3.87177 21 4.7002 21H19.7002C20.5286 21 21.2002 20.3284 21.2002 19.5V4.5C21.2002 3.67157 20.5286 3 19.7002 3ZM19.7002 4.5V14.25H17.0096C16.6119 14.249 16.2303 14.4073 15.9502 14.6897L14.1399 16.5H10.2605L8.4502 14.6897C8.16986 14.4071 7.78793 14.2487 7.38988 14.25H4.7002V4.5H19.7002ZM19.7002 19.5H4.7002V15.75H7.38988L9.2002 17.5603C9.48053 17.8429 9.86246 18.0013 10.2605 18H14.1399C14.5379 18.0013 14.9199 17.8429 15.2002 17.5603L17.0105 15.75H19.7002V19.5Z" fill="#61788A"/>
</g>
<defs>
<clipPath id="clip0_55_505">
<rect width="24" height="24" fill="white" transform="translate(0.200195)"/>
</clipPath>
</defs>
</svg>
