<svg width="25" height="24" viewBox="0 0 25 24" fill="none" xmlns="http://www.w3.org/2000/svg">
<g clip-path="url(#clip0_573_3697)">
<path fill-rule="evenodd" clip-rule="evenodd" d="M12.125 7.5C9.63972 7.5 7.625 9.51472 7.625 12C7.625 14.4853 9.63972 16.5 12.125 16.5C14.6103 16.5 16.625 14.4853 16.625 12C16.6224 9.51579 14.6092 7.50258 12.125 7.5ZM12.125 15C10.4681 15 9.125 13.6569 9.125 12C9.125 10.3431 10.4681 9 12.125 9C13.7819 9 15.125 10.3431 15.125 12C15.125 13.6569 13.7819 15 12.125 15ZM20.375 12.2025C20.3787 12.0675 20.3787 11.9325 20.375 11.7975L21.7738 10.05C21.9225 9.86393 21.974 9.61827 21.9125 9.38813C21.6832 8.52619 21.3402 7.69861 20.8925 6.92719C20.7736 6.72249 20.5651 6.58592 20.33 6.55875L18.1063 6.31125C18.0138 6.21375 17.92 6.12 17.825 6.03L17.5625 3.80063C17.5351 3.56531 17.3982 3.35677 17.1931 3.23813C16.4214 2.79126 15.5939 2.44859 14.7322 2.21906C14.5019 2.15784 14.2562 2.20969 14.0703 2.35875L12.3275 3.75C12.1925 3.75 12.0575 3.75 11.9225 3.75L10.175 2.35406C9.98893 2.20533 9.74327 2.15383 9.51313 2.21531C8.65133 2.44503 7.8238 2.78802 7.05219 3.23531C6.84749 3.35417 6.71092 3.56268 6.68375 3.79781L6.43625 6.02531C6.33875 6.11844 6.245 6.21219 6.155 6.30656L3.92563 6.5625C3.69031 6.58988 3.48177 6.72682 3.36313 6.93188C2.91626 7.70359 2.57359 8.5311 2.34406 9.39281C2.28284 9.6231 2.33469 9.86878 2.48375 10.0547L3.875 11.7975C3.875 11.9325 3.875 12.0675 3.875 12.2025L2.47906 13.95C2.33033 14.1361 2.27883 14.3817 2.34031 14.6119C2.56962 15.4738 2.91263 16.3014 3.36031 17.0728C3.47917 17.2775 3.68768 17.4141 3.92281 17.4412L6.14656 17.6887C6.23969 17.7862 6.33344 17.88 6.42781 17.97L6.6875 20.1994C6.71488 20.4347 6.85182 20.6432 7.05688 20.7619C7.82859 21.2087 8.6561 21.5514 9.51781 21.7809C9.7481 21.8422 9.99378 21.7903 10.1797 21.6413L11.9225 20.25C12.0575 20.2537 12.1925 20.2537 12.3275 20.25L14.075 21.6488C14.2611 21.7975 14.5067 21.849 14.7369 21.7875C15.5988 21.5582 16.4264 21.2152 17.1978 20.7675C17.4025 20.6486 17.5391 20.4401 17.5662 20.205L17.8137 17.9813C17.9112 17.8888 18.005 17.795 18.095 17.7L20.3244 17.4375C20.5597 17.4101 20.7682 17.2732 20.8869 17.0681C21.3337 16.2964 21.6764 15.4689 21.9059 14.6072C21.9672 14.3769 21.9153 14.1312 21.7663 13.9453L20.375 12.2025ZM18.8656 11.5931C18.8816 11.8641 18.8816 12.1359 18.8656 12.4069C18.8545 12.5924 18.9126 12.7755 19.0287 12.9206L20.3591 14.5828C20.2064 15.0679 20.011 15.5385 19.775 15.9891L17.6562 16.2291C17.4717 16.2495 17.3014 16.3377 17.1781 16.4766C16.9977 16.6795 16.8055 16.8717 16.6025 17.0522C16.4637 17.1754 16.3755 17.3458 16.355 17.5303L16.1197 19.6472C15.6692 19.8833 15.1986 20.0787 14.7134 20.2313L13.0503 18.9009C12.9172 18.7946 12.7519 18.7367 12.5816 18.7369H12.5366C12.2655 18.7528 11.9938 18.7528 11.7228 18.7369C11.5373 18.7257 11.3542 18.7838 11.2091 18.9L9.54219 20.2313C9.05706 20.0786 8.58646 19.8831 8.13594 19.6472L7.89594 17.5312C7.87546 17.3467 7.78727 17.1764 7.64844 17.0531C7.44548 16.8727 7.25327 16.6805 7.07281 16.4775C6.94956 16.3387 6.7792 16.2505 6.59469 16.23L4.47781 15.9937C4.24174 15.5433 4.04628 15.0727 3.89375 14.5875L5.22406 12.9244C5.34022 12.7793 5.39836 12.5962 5.38719 12.4106C5.37125 12.1396 5.37125 11.8679 5.38719 11.5969C5.39836 11.4113 5.34022 11.2282 5.22406 11.0831L3.89375 9.41719C4.0464 8.93206 4.24185 8.46146 4.47781 8.01094L6.59375 7.77094C6.77826 7.75046 6.94862 7.66227 7.07188 7.52344C7.25233 7.32048 7.44454 7.12827 7.6475 6.94781C7.78688 6.82448 7.87543 6.65373 7.89594 6.46875L8.13125 4.35281C8.58172 4.11674 9.05233 3.92128 9.5375 3.76875L11.2006 5.09906C11.3457 5.21522 11.5288 5.27336 11.7144 5.26219C11.9854 5.24625 12.2571 5.24625 12.5281 5.26219C12.7137 5.27336 12.8968 5.21522 13.0419 5.09906L14.7078 3.76875C15.1929 3.9214 15.6635 4.11685 16.1141 4.35281L16.3541 6.46875C16.3745 6.65326 16.4627 6.82362 16.6016 6.94688C16.8045 7.12733 16.9967 7.31954 17.1772 7.5225C17.3004 7.66133 17.4708 7.74952 17.6553 7.77L19.7722 8.00531C20.0083 8.45578 20.2037 8.9264 20.3563 9.41156L19.0259 11.0747C18.9087 11.221 18.8505 11.406 18.8628 11.5931H18.8656Z" fill="#4A739C"/>
</g>
<defs>
<clipPath id="clip0_573_3697">
<rect width="24" height="24" fill="white" transform="translate(0.125)"/>
</clipPath>
</defs>
</svg>
