<svg width="32" height="26" viewBox="0 0 32 26" fill="none" xmlns="http://www.w3.org/2000/svg">
<path d="M0 4.33363C0 2.37252 1.59444 0.778076 3.55556 0.778076H28.4444C30.4056 0.778076 32 2.37252 32 4.33363H0ZM0 7.0003H32V22.1114C32 24.0725 30.4056 25.667 28.4444 25.667H3.55556C1.59444 25.667 0 24.0725 0 22.1114V7.0003ZM13.7389 22.1114C14.8611 22.1114 15.7 21.0336 14.9833 20.167C14.1667 19.1836 12.9333 18.5559 11.5556 18.5559H8C6.62222 18.5559 5.38889 19.1836 4.57222 20.167C3.85556 21.0336 4.69444 22.1114 5.81667 22.1114H13.7333H13.7389ZM9.77778 16.3336C10.6029 16.3336 11.3942 16.0059 11.9777 15.4224C12.5611 14.839 12.8889 14.0476 12.8889 13.2225C12.8889 12.3974 12.5611 11.6061 11.9777 11.0226C11.3942 10.4392 10.6029 10.1114 9.77778 10.1114C8.95266 10.1114 8.16134 10.4392 7.57789 11.0226C6.99444 11.6061 6.66667 12.3974 6.66667 13.2225C6.66667 14.0476 6.99444 14.839 7.57789 15.4224C8.16134 16.0059 8.95266 16.3336 9.77778 16.3336ZM20 10.5559C19.2611 10.5559 18.6667 11.1503 18.6667 11.8892C18.6667 12.6281 19.2611 13.2225 20 13.2225H26.2222C26.9611 13.2225 27.5556 12.6281 27.5556 11.8892C27.5556 11.1503 26.9611 10.5559 26.2222 10.5559H20ZM20 15.8892C19.2611 15.8892 18.6667 16.4836 18.6667 17.2225C18.6667 17.9614 19.2611 18.5559 20 18.5559H26.2222C26.9611 18.5559 27.5556 17.9614 27.5556 17.2225C27.5556 16.4836 26.9611 15.8892 26.2222 15.8892H20Z" fill="#285D90"/>
</svg>
